<?xml version="1.0" encoding="utf-8"?>
<!-- Generator: Adobe Illustrator 26.2.1, SVG Export Plug-In . SVG Version: 6.00 Build 0)  -->
<svg version="1.1" id="Capa_1" xmlns="http://www.w3.org/2000/svg" xmlns:xlink="http://www.w3.org/1999/xlink" x="0px" y="0px"
	 width="813.2px" height="415.1px" viewBox="0 0 813.2 415.1" style="enable-background:new 0 0 813.2 415.1;" xml:space="preserve"
	>
<style type="text/css">
	.st0{fill:#041c2c;}
</style>
<g>
	<g>
		<polygon class="st0" points="13.2,10.9 13.2,404.2 799.9,404.2 799.9,268 780.3,268 780.3,384.5 32.9,384.5 32.9,30.5 780.3,30.5
			780.3,147 799.9,147 799.9,10.9 		"/>
	</g>
	<g>
		<path class="st0" d="M177,102.1l-36.3,81h18.6l6.7-14.8h39.6l6.6,14.8h18.7l-36.3-81H177z M198.7,152.1H173l12.8-29.4L198.7,152.1
			z"/>
		<polygon class="st0" points="333.3,166.1 289.2,166.1 289.2,150.7 331.8,150.7 331.8,134.6 289.2,134.6 289.2,118.8 333.3,118.8
			333.3,102.1 272.1,102.1 272.1,183.1 333.3,183.1 		"/>
		<path class="st0" d="M454.5,142.7c0-20.2-12.5-40.6-40.5-40.6h-32.1v81H414C442,183.1,454.5,162.8,454.5,142.7z M414,166.5h-15
			v-48h15c17.3,0,23.4,13.1,23.4,24.2C437.4,153.7,431.3,166.5,414,166.5z"/>
		<path class="st0" d="M519.9,102.1l-36.3,81h18.6l6.7-14.8h39.6l6.6,14.8h18.7l-36.3-81H519.9z M541.5,152.1h-25.6l12.8-29.4
			L541.5,152.1z"/>
		<path class="st0" d="M638.5,169.5c-10.2,0-18.1-4.4-21.1-11.7l-0.5-1.2l-14.5,7.5l0.4,1c5.5,13.5,17,20.1,35.4,20.1
			c9.5,0,17.7-2.1,23.7-6.2c6.8-4.6,10.5-11.5,10.5-20.1c0-19.5-15.7-24.1-32.7-26.2c-9.9-1.2-16.5-3.1-16.5-8.7
			c0-5.7,5.8-9.3,15.1-9.3c8.3,0,15.3,4.2,17.7,8.2l0.6,0.9l13.8-7.1l-0.5-1c-5.2-10.6-16.3-16.3-32-16.3
			c-15.7,0.1-31.6,7.6-31.6,24.1c0,18.7,16.1,23.1,31.9,25c11.7,1.3,17.2,4.6,17.2,10.4C655.4,168.7,642.5,169.5,638.5,169.5z"/>
	</g>
	<g>
		<polygon class="st0" points="196.6,265.9 160.9,265.9 160.9,233.3 143.9,233.3 143.9,313.1 160.9,313.1 160.9,281.8 196.6,281.8
			196.6,313.1 213.4,313.1 213.4,233.3 196.6,233.3 		"/>
		<path class="st0" d="M292.8,231.6c-12.7,0-23.4,4.6-30.9,13.2c-6.6,7.6-10.2,17.8-10.2,28.8c0,20.5,12.7,41.1,41,41.1
			c28.3,0,40.9-21,40.9-41.8c0-10.8-3.6-20.9-10.2-28.4C316,236.1,305.4,231.6,292.8,231.6z M292.8,247.2c16.7,0,24.2,13,24.2,25.9
			c0,19-12.5,25.8-24.2,25.8c-11.7,0-24.3-6.8-24.3-25.9C268.5,260.2,276,247.2,292.8,247.2z"/>
		<polygon class="st0" points="414.9,265.7 391.3,233.3 372.7,233.3 372.7,313.1 389.6,313.1 389.6,259.2 412.5,290.5 416.6,290.5
			440.1,259.2 440.1,313.1 457,313.1 457,233.3 438.5,233.3 		"/>
		<polygon class="st0" points="502.5,313 562.8,313 562.8,296.2 519.3,296.2 519.3,281.1 561.3,281.1 561.3,265.1 519.3,265.1
			519.3,249.7 562.8,249.7 562.8,233.1 502.5,233.1 		"/>
		<path class="st0" d="M637,263.3c-9.7-1.2-16.2-3.1-16.2-8.6c0-5.6,5.7-9.1,14.9-9.1c8.1,0,15,4.2,17.4,8.1l0.6,0.9l13.6-7l-0.5-1
			c-5.2-10.5-16-16-31.5-16c-15.5,0.1-31.2,7.5-31.2,23.8c0,18.4,15.9,22.8,31.5,24.6c11.5,1.2,16.9,4.5,16.9,10.2
			c0,9.7-12.7,10.4-16.6,10.4c-10.1,0-17.8-4.3-20.7-11.5l-0.5-1.2l-14.3,7.4l0.4,1c5.4,13.3,16.8,19.8,34.8,19.8
			c9.4,0,17.5-2.1,23.4-6.1c6.7-4.5,10.3-11.4,10.3-19.8C669.3,269.9,653.8,265.3,637,263.3z"/>
	</g>
</g>
</svg>
